<svg xmlns="http://www.w3.org/2000/svg" width="160" height="38" viewBox="0 0 160 38">
  <path fill="#FFF" fill-rule="evenodd" d="M25.3579502,22.3961502 C25.3579502,26.4351502 21.7805502,29.0028003 17.1068501,29.0028003 C12.26005,29.0028003 9,26.6948002 9,22.6269502 L9,22.0788002 L13.7602501,22.0788002 L13.7602501,22.4827002 C13.7602501,24.1848502 14.8565501,25.2234502 17.1357001,25.2234502 C19.1840501,25.2234502 20.5400002,24.3868002 20.5400002,22.8289002 C20.5400002,21.9345502 20.1649501,21.2998502 19.1552001,21.0402002 L14.1064501,19.7708002 C10.9618,18.9918501 9.3462,17.6070501 9.3462,14.3181501 C9.3462,10.308 12.20235,8 16.9914501,8 C21.5209002,8 24.4059002,10.45225 24.4059002,14.1450501 L24.4059002,14.6355001 L19.8187501,14.6355001 L19.8187501,14.2893001 C19.8187501,12.9333501 19.0686501,11.8082001 16.9914501,11.8082001 C15.2604501,11.8082001 14.1641501,12.4140501 14.1641501,13.8565501 C14.1641501,14.8086001 14.6546001,15.2990501 15.4624001,15.5010001 L20.8285002,16.9435001 C24.0597002,17.8090001 25.3579502,19.5977002 25.3579502,22.3961502 Z M42.9524359,22.5115502 L39.2884859,22.5115502 L39.2884859,28.5989003 L34.3262858,28.5989003 L34.3262858,8.40390001 L42.9524359,8.40390001 C47.712686,8.40390001 50.799636,11.14465 50.799636,15.3856001 C50.799636,19.6265502 47.654986,22.5115502 42.9524359,22.5115502 Z M45.837436,15.3856001 C45.837436,13.6546001 44.856536,12.5294501 42.6639359,12.5294501 L39.2884859,12.5294501 L39.2884859,18.3860001 L42.6639359,18.3860001 C44.856536,18.3860001 45.837436,17.1166001 45.837436,15.3856001 Z M70.4424718,28.5989003 L65.6533717,14.3181501 L60.8642717,28.5989003 L55.9020716,28.5989003 L63.1145717,8.40390001 L68.1921718,8.40390001 L75.4046719,28.5989003 L70.4424718,28.5989003 Z M87.1714575,20.0593002 C87.1714575,22.9154502 88.3831575,24.9061002 91.3835576,24.9061002 C94.0377576,24.9061002 95.3071576,23.1751002 95.3937076,21.1556002 L99.9808577,21.1556002 C99.9231577,25.4254002 96.7785076,29.0028003 91.4412576,29.0028003 C85.2096575,29.0028003 82.2092574,25.0792002 82.2092574,19.8285002 L82.2092574,17.1743001 C82.2092574,11.9236001 85.2096575,8 91.4412576,8 C96.7785076,8 99.9231577,11.5774 99.9808577,15.8472001 L95.3937076,15.8472001 C95.3071576,13.8277001 94.0377576,12.0967001 91.3835576,12.0967001 C88.3831575,12.0967001 87.1714575,14.0873501 87.1714575,16.9435001 L87.1714575,20.0593002 Z M109.064593,28.5989003 L109.064593,8.40390001 L123.691543,8.40390001 L123.691543,12.5294501 L114.026793,12.5294501 L114.026793,16.3088001 L122.826043,16.3088001 L122.826043,20.4343502 L114.026793,20.4343502 L114.026793,24.4733502 L123.720393,24.4733502 L123.720393,28.5989003 L109.064593,28.5989003 Z M132.919529,8.40390001 L141.747629,8.40390001 C147.315679,8.40390001 150.171829,11.77935 150.171829,16.4242001 L150.171829,20.5786002 C150.171829,25.2234502 147.315679,28.5989003 141.747629,28.5989003 L132.919529,28.5989003 L132.919529,8.40390001 Z M145.209629,20.6074502 L145.209629,16.3953501 C145.209629,13.8277001 143.853679,12.4717501 140.853279,12.4717501 L137.852879,12.4717501 L137.852879,24.5310502 L140.853279,24.5310502 C143.853679,24.5310502 145.209629,23.1751002 145.209629,20.6074502 Z"/>
</svg>
